<?xml version="1.0" ?><svg viewBox="0 0 32 32" xmlns="http://www.w3.org/2000/svg"><title/><g data-name="Layer 21" id="Layer_21"><path d="M12.86,17.73l-7.4,7.4V21.89a1,1,0,0,0-2,0v5.64s0,.05,0,.08a1,1,0,0,0,.2.54,1,1,0,0,0,.14.15,1,1,0,0,0,.65.24h5.65a1,1,0,0,0,0-2H6.87l7.4-7.4a1,1,0,0,0-1.41-1.41Z"/><path d="M28.3,3.81a1,1,0,0,0-.15-.14,1,1,0,0,0-.54-.2H21.89a1,1,0,0,0,0,2h3.23l-7.4,7.4a1,1,0,1,0,1.41,1.41l7.4-7.4v3.23a1,1,0,0,0,2,0V4.46h0A1,1,0,0,0,28.3,3.81Z"/><path d="M27.54,20.89a1,1,0,0,0-1,1v3.23l-7.4-7.4a1,1,0,0,0-1.41,1.41l7.4,7.4H21.89a1,1,0,0,0,0,2h5.65a1,1,0,0,0,.65-.24,1,1,0,0,0,.14-.15,1,1,0,0,0,.2-.54s0-.05,0-.08V21.89A1,1,0,0,0,27.54,20.89Z"/><path d="M6.87,5.46h3.23a1,1,0,0,0,0-2H4.46a1,1,0,0,0-.65.24,1,1,0,0,0-.14.15,1,1,0,0,0-.2.54s0,.05,0,.08v5.64a1,1,0,0,0,2,0V6.87l7.4,7.4a1,1,0,0,0,1.41-1.41Z"/></g></svg>